<?xml version="1.0" encoding="UTF-8" standalone="no"?>
<!DOCTYPE svg PUBLIC "-//W3C//DTD SVG 1.1//EN"
 "http://www.w3.org/Graphics/SVG/1.1/DTD/svg11.dtd">
<!-- Generated by graphviz version 13.1.0 (20250701.0955)
 -->
<!-- Title: G Pages: 1 -->
<svg width="583pt" height="80pt"
 viewBox="0.00 0.00 583.00 80.00" xmlns="http://www.w3.org/2000/svg" xmlns:xlink="http://www.w3.org/1999/xlink">
<g id="graph0" class="graph" transform="scale(1 1) rotate(0) translate(4 76.38)">
<title>G</title>
<polygon fill="white" stroke="none" points="-4,4 -4,-76.38 579.41,-76.38 579.41,4 -4,4"/>
<!-- a -->
<g id="node1" class="node">
<title>a</title>
<ellipse fill="none" stroke="black" cx="37.53" cy="-21.38" rx="37.53" ry="18"/>
<text xml:space="preserve" text-anchor="middle" x="37.53" y="-16.33" font-family="Times,serif" font-size="14.00">3 成立</text>
</g>
<!-- a&#45;&gt;a -->
<g id="edge7" class="edge">
<title>a&#45;&gt;a</title>
<path fill="none" stroke="black" d="M23.9,-38.41C21.12,-48.24 25.67,-57.38 37.53,-57.38 44.39,-57.38 48.81,-54.32 50.77,-49.85"/>
<polygon fill="black" stroke="black" points="54.27,-50.04 51.11,-39.93 47.27,-49.8 54.27,-50.04"/>
<text xml:space="preserve" text-anchor="middle" x="37.53" y="-59.08" font-family="Times,serif" font-size="14.00">成立</text>
</g>
<!-- b -->
<g id="node2" class="node">
<title>b</title>
<ellipse fill="none" stroke="black" cx="191.35" cy="-21.38" rx="37.53" ry="18"/>
<text xml:space="preserve" text-anchor="middle" x="191.35" y="-16.33" font-family="Times,serif" font-size="14.00">2 成立</text>
</g>
<!-- a&#45;&gt;b -->
<g id="edge1" class="edge">
<title>a&#45;&gt;b</title>
<path fill="none" stroke="black" d="M75.28,-21.38C95.37,-21.38 120.49,-21.38 142.13,-21.38"/>
<polygon fill="black" stroke="black" points="141.9,-24.88 151.9,-21.38 141.9,-17.88 141.9,-24.88"/>
<text xml:space="preserve" text-anchor="middle" x="114.44" y="-23.08" font-family="Times,serif" font-size="14.00">不成立</text>
</g>
<!-- b&#45;&gt;a -->
<g id="edge6" class="edge">
<title>b&#45;&gt;a</title>
<path fill="none" stroke="black" d="M162.24,-9.57C153.88,-6.62 144.61,-3.87 135.82,-2.38 117.08,0.79 111.8,0.79 93.07,-2.38 87.84,-3.26 82.45,-4.59 77.18,-6.14"/>
<polygon fill="black" stroke="black" points="76.51,-2.68 68.08,-9.1 78.67,-9.34 76.51,-2.68"/>
<text xml:space="preserve" text-anchor="middle" x="114.44" y="-4.08" font-family="Times,serif" font-size="14.00">成立</text>
</g>
<!-- c -->
<g id="node3" class="node">
<title>c</title>
<ellipse fill="none" stroke="black" cx="354.89" cy="-21.38" rx="47.26" ry="18"/>
<text xml:space="preserve" text-anchor="middle" x="354.89" y="-16.33" font-family="Times,serif" font-size="14.00">1 不成立</text>
</g>
<!-- b&#45;&gt;c -->
<g id="edge2" class="edge">
<title>b&#45;&gt;c</title>
<path fill="none" stroke="black" d="M229,-21.38C248.74,-21.38 273.55,-21.38 295.84,-21.38"/>
<polygon fill="black" stroke="black" points="295.72,-24.88 305.72,-21.38 295.72,-17.88 295.72,-24.88"/>
<text xml:space="preserve" text-anchor="middle" x="268.26" y="-23.08" font-family="Times,serif" font-size="14.00">不成立</text>
</g>
<!-- c&#45;&gt;b -->
<g id="edge5" class="edge">
<title>c&#45;&gt;b</title>
<path fill="none" stroke="black" d="M319.28,-9.17C309.79,-6.36 299.42,-3.79 289.63,-2.38 270.83,0.34 265.61,0.79 246.88,-2.38 241.66,-3.26 236.27,-4.59 231,-6.14"/>
<polygon fill="black" stroke="black" points="230.32,-2.68 221.9,-9.1 232.49,-9.34 230.32,-2.68"/>
<text xml:space="preserve" text-anchor="middle" x="268.26" y="-4.08" font-family="Times,serif" font-size="14.00">成立</text>
</g>
<!-- d -->
<g id="node4" class="node">
<title>d</title>
<ellipse fill="none" stroke="black" cx="528.15" cy="-21.38" rx="47.26" ry="18"/>
<text xml:space="preserve" text-anchor="middle" x="528.15" y="-16.33" font-family="Times,serif" font-size="14.00">0 不成立</text>
</g>
<!-- c&#45;&gt;d -->
<g id="edge3" class="edge">
<title>c&#45;&gt;d</title>
<path fill="none" stroke="black" d="M402.23,-21.38C422.81,-21.38 447.24,-21.38 469.02,-21.38"/>
<polygon fill="black" stroke="black" points="468.96,-24.88 478.96,-21.38 468.96,-17.88 468.96,-24.88"/>
<text xml:space="preserve" text-anchor="middle" x="441.52" y="-23.08" font-family="Times,serif" font-size="14.00">不成立</text>
</g>
<!-- d&#45;&gt;c -->
<g id="edge4" class="edge">
<title>d&#45;&gt;c</title>
<path fill="none" stroke="black" d="M492.54,-9.17C483.05,-6.36 472.68,-3.79 462.89,-2.38 444.09,0.34 438.95,0.34 420.14,-2.38 414.03,-3.26 407.68,-4.6 401.47,-6.16"/>
<polygon fill="black" stroke="black" points="400.68,-2.75 391.96,-8.77 402.53,-9.5 400.68,-2.75"/>
<text xml:space="preserve" text-anchor="middle" x="441.52" y="-4.08" font-family="Times,serif" font-size="14.00">成立</text>
</g>
<!-- d&#45;&gt;d -->
<g id="edge8" class="edge">
<title>d&#45;&gt;d</title>
<path fill="none" stroke="black" d="M512.69,-38.79C509.8,-48.47 514.95,-57.38 528.15,-57.38 535.78,-57.38 540.72,-54.4 542.98,-50.02"/>
<polygon fill="black" stroke="black" points="546.46,-50.48 543.53,-40.3 539.47,-50.08 546.46,-50.48"/>
<text xml:space="preserve" text-anchor="middle" x="528.15" y="-59.08" font-family="Times,serif" font-size="14.00">不成立</text>
</g>
</g>
</svg>
